<?xml version="1.0" encoding="UTF-8"?>
<svg width="80px" height="54px" viewBox="0 0 80 54" version="1.1" xmlns="http://www.w3.org/2000/svg" xmlns:xlink="http://www.w3.org/1999/xlink">
    <!-- Generator: Sketch 48 (47235) - http://www.bohemiancoding.com/sketch -->
    <title> copy</title>
    <desc>Created with Sketch.</desc>
    <defs>
        <linearGradient x1="100%" y1="21.3147822%" x2="0%" y2="70.811196%" id="linearGradient-1">
            <stop stop-color="#FB6B60" offset="0%"></stop>
            <stop stop-color="#FF2E55" offset="100%"></stop>
        </linearGradient>
    </defs>
    <g id="Upload-Bài-Hát" stroke="none" stroke-width="1" fill="none" fill-rule="evenodd" transform="translate(-487.000000, -357.000000)">
        <g id="Group-2" transform="translate(132.000000, 260.000000)" fill="url(#linearGradient-1)">
            <g id="Group" transform="translate(304.000000, 97.000000)">
                <path d="M97.72,30 L107.72,30 L91,13.44 L74.28,30 L84.28,30 L84.28,43.44 L97.72,43.44 L97.72,30 Z M115.56,20.16 C118.386681,20.3733344 120.973322,21.2399924 123.32,22.76 C125.666678,24.2800076 127.533326,26.2666544 128.92,28.72 C130.306674,31.1733456 131,33.8399856 131,36.72 C131,39.7600152 130.253341,42.5599872 128.76,45.12 C127.266659,47.6800128 125.240013,49.7066592 122.68,51.2 C120.119987,52.6933408 117.320015,53.44 114.28,53.44 L71,53.44 C67.3733152,53.44 64.026682,52.5466756 60.96,50.76 C57.893318,48.9733244 55.4666756,46.546682 53.68,43.48 C51.8933244,40.413318 51,37.0666848 51,33.44 C51,30.0799832 51.7866588,26.9466812 53.36,24.04 C54.9333412,21.1333188 57.0799864,18.7600092 59.8,16.92 C62.5200136,15.0799908 65.5333168,13.9733352 68.84,13.6 C70.973344,9.4933128 73.9866472,6.2133456 77.88,3.76 C81.88002,1.2533208 86.2533096,0 91,0 C95.00002,0 98.733316,0.8799912 102.2,2.64 C105.61335,4.3466752 108.493322,6.733318 110.84,9.8 C113.186678,12.866682 114.759996,16.3199808 115.56,20.16 Z" id="-copy"></path>
            </g>
        </g>
    </g>
</svg>